<mxfile host="app.diagrams.net" modified="2024-04-01T09:13:57.868Z" agent="Mozilla/5.0 (Macintosh; Intel Mac OS X 10_15_7) AppleWebKit/537.36 (KHTML, like Gecko) Chrome/123.0.0.0 Safari/537.36" etag="53gqw_xjTkvDucnZS0vq" version="23.1.1" type="device">
  <diagram name="Page-1" id="SYDYfEW7u4ATH0Pcf1Zn">
    <mxGraphModel dx="1434" dy="756" grid="1" gridSize="10" guides="1" tooltips="1" connect="1" arrows="1" fold="1" page="1" pageScale="1" pageWidth="827" pageHeight="1169" math="0" shadow="0">
      <root>
        <mxCell id="0" />
        <mxCell id="1" parent="0" />
        <mxCell id="ICZMuqXIQKwIvHiZ08Ul-3" value="" style="edgeStyle=orthogonalEdgeStyle;rounded=0;orthogonalLoop=1;jettySize=auto;html=1;" edge="1" parent="1" source="ICZMuqXIQKwIvHiZ08Ul-1" target="ICZMuqXIQKwIvHiZ08Ul-2">
          <mxGeometry relative="1" as="geometry" />
        </mxCell>
        <mxCell id="ICZMuqXIQKwIvHiZ08Ul-1" value="Mulai" style="ellipse;whiteSpace=wrap;html=1;" vertex="1" parent="1">
          <mxGeometry x="130" y="120" width="120" height="80" as="geometry" />
        </mxCell>
        <mxCell id="ICZMuqXIQKwIvHiZ08Ul-5" value="" style="edgeStyle=orthogonalEdgeStyle;rounded=0;orthogonalLoop=1;jettySize=auto;html=1;" edge="1" parent="1" source="ICZMuqXIQKwIvHiZ08Ul-2" target="ICZMuqXIQKwIvHiZ08Ul-4">
          <mxGeometry relative="1" as="geometry" />
        </mxCell>
        <mxCell id="ICZMuqXIQKwIvHiZ08Ul-2" value="Identifikasi Masalah" style="whiteSpace=wrap;html=1;" vertex="1" parent="1">
          <mxGeometry x="360" y="130" width="120" height="60" as="geometry" />
        </mxCell>
        <mxCell id="ICZMuqXIQKwIvHiZ08Ul-7" value="" style="edgeStyle=orthogonalEdgeStyle;rounded=0;orthogonalLoop=1;jettySize=auto;html=1;" edge="1" parent="1" source="ICZMuqXIQKwIvHiZ08Ul-4" target="ICZMuqXIQKwIvHiZ08Ul-6">
          <mxGeometry relative="1" as="geometry" />
        </mxCell>
        <mxCell id="ICZMuqXIQKwIvHiZ08Ul-4" value="Studi Literatur" style="whiteSpace=wrap;html=1;" vertex="1" parent="1">
          <mxGeometry x="360" y="270" width="120" height="60" as="geometry" />
        </mxCell>
        <mxCell id="ICZMuqXIQKwIvHiZ08Ul-9" value="" style="edgeStyle=orthogonalEdgeStyle;rounded=0;orthogonalLoop=1;jettySize=auto;html=1;" edge="1" parent="1" source="ICZMuqXIQKwIvHiZ08Ul-6" target="ICZMuqXIQKwIvHiZ08Ul-8">
          <mxGeometry relative="1" as="geometry" />
        </mxCell>
        <mxCell id="ICZMuqXIQKwIvHiZ08Ul-6" value="Analisis Kebutuhan" style="whiteSpace=wrap;html=1;" vertex="1" parent="1">
          <mxGeometry x="130" y="270" width="120" height="60" as="geometry" />
        </mxCell>
        <mxCell id="ICZMuqXIQKwIvHiZ08Ul-11" value="" style="edgeStyle=orthogonalEdgeStyle;rounded=0;orthogonalLoop=1;jettySize=auto;html=1;" edge="1" parent="1" source="ICZMuqXIQKwIvHiZ08Ul-8" target="ICZMuqXIQKwIvHiZ08Ul-10">
          <mxGeometry relative="1" as="geometry" />
        </mxCell>
        <mxCell id="ICZMuqXIQKwIvHiZ08Ul-8" value="Perancangan Sistem" style="whiteSpace=wrap;html=1;" vertex="1" parent="1">
          <mxGeometry x="130" y="410" width="120" height="60" as="geometry" />
        </mxCell>
        <mxCell id="ICZMuqXIQKwIvHiZ08Ul-13" value="" style="edgeStyle=orthogonalEdgeStyle;rounded=0;orthogonalLoop=1;jettySize=auto;html=1;" edge="1" parent="1" source="ICZMuqXIQKwIvHiZ08Ul-10" target="ICZMuqXIQKwIvHiZ08Ul-12">
          <mxGeometry relative="1" as="geometry" />
        </mxCell>
        <mxCell id="ICZMuqXIQKwIvHiZ08Ul-10" value="Pengembangan Sistem" style="whiteSpace=wrap;html=1;" vertex="1" parent="1">
          <mxGeometry x="360" y="410" width="120" height="60" as="geometry" />
        </mxCell>
        <mxCell id="ICZMuqXIQKwIvHiZ08Ul-12" value="Pengujian dan Evaluasi" style="whiteSpace=wrap;html=1;" vertex="1" parent="1">
          <mxGeometry x="360" y="550" width="120" height="60" as="geometry" />
        </mxCell>
        <mxCell id="ICZMuqXIQKwIvHiZ08Ul-14" value="Selesai" style="ellipse;whiteSpace=wrap;html=1;" vertex="1" parent="1">
          <mxGeometry x="130" y="540" width="120" height="80" as="geometry" />
        </mxCell>
        <mxCell id="ICZMuqXIQKwIvHiZ08Ul-15" value="" style="endArrow=classic;html=1;rounded=0;exitX=0;exitY=0.5;exitDx=0;exitDy=0;entryX=1;entryY=0.5;entryDx=0;entryDy=0;" edge="1" parent="1" source="ICZMuqXIQKwIvHiZ08Ul-12" target="ICZMuqXIQKwIvHiZ08Ul-14">
          <mxGeometry width="50" height="50" relative="1" as="geometry">
            <mxPoint x="390" y="410" as="sourcePoint" />
            <mxPoint x="440" y="360" as="targetPoint" />
          </mxGeometry>
        </mxCell>
      </root>
    </mxGraphModel>
  </diagram>
</mxfile>
